Coordinates
version=1
nRows=29
nColumns=22
inDegrees=yes

Units are S.I. units (second, meters, Newtons, ...)
If the header above contains a line with 'inDegrees', this indicates whether rotational values are in degrees (yes) or radians (no).

endheader
time	pelvis_tilt	pelvis_list	pelvis_rotation	pelvis_tx	pelvis_ty	pelvis_tz	hip_flexion_r	hip_adduction_r	hip_rotation_r	knee_angle_r	ankle_angle_r	subtalar_angle_r	hip_flexion_l	hip_adduction_l	hip_rotation_l	knee_angle_l	ankle_angle_l	subtalar_angle_l	lumbar_extension	lumbar_bending	lumbar_rotation
      1.23000000	    -12.39858555	      1.76718289	     -2.37462384	     -0.66360082	      0.96668367	      0.15337113	     41.77043375	     -3.17024033	     -2.21873952	    -33.31013678	     13.48220551	      2.67204464	     13.02549004	      5.93529367	     -7.35470705	    -15.47360675	     22.58605200	     -5.36816615	     -0.66280957	     -0.45370365	      1.70129389
      1.24000000	    -12.39798279	      1.72002762	     -2.39026277	     -0.65973328	      0.96613954	      0.15369318	     41.97720645	     -2.95091846	     -2.20484022	    -32.21889656	     13.34295133	      3.20507210	     12.79398726	      5.87562011	     -7.34691705	    -15.52233395	     22.86101648	     -5.35667099	     -0.72442393	     -0.41414638	      1.66295854
      1.25000000	    -12.40017049	      1.67171334	     -2.41811846	     -0.65570792	      0.96555137	      0.15406029	     42.19314942	     -2.73013644	     -2.20344273	    -31.18311585	     13.19203522	      3.59510752	     12.56041166	      5.80916223	     -7.37365544	    -15.57870142	     23.14963708	     -5.35760663	     -0.77324088	     -0.36724045	      1.62625543
      1.26000000	    -12.36857235	      1.63329081	     -2.44250104	     -0.65154480	      0.96497237	      0.15446171	     42.38135360	     -2.53043256	     -2.19726681	    -30.21644255	     13.11520966	      4.05665477	     12.29175532	      5.75345048	     -7.38149329	    -15.65449109	     23.44731274	     -5.34343004	     -0.86318312	     -0.33782573	      1.59128335
      1.27000000	    -12.32062466	      1.62014467	     -2.47051734	     -0.64722847	      0.96436884	      0.15485800	     42.57219145	     -2.36833000	     -2.20173211	    -29.34523406	     13.07096509	      4.44150459	     11.99507471	      5.73091581	     -7.36100104	    -15.72554200	     23.74352805	     -5.31411855	     -0.96650264	     -0.33230323	      1.57060292
      1.28000000	    -12.29588305	      1.60653684	     -2.49320677	     -0.64277231	      0.96367044	      0.15526348	     42.80185175	     -2.22482556	     -2.25682882	    -28.56498999	     12.98204005	      4.54470888	     11.73434206	      5.70283131	     -7.35911939	    -15.83525572	     24.06766321	     -5.31399471	     -1.03631543	     -0.32061192	      1.54491074
      1.29000000	    -12.21327126	      1.58399478	     -2.50177165	     -0.63811108	      0.96302869	      0.15565684	     42.97031812	     -2.10773270	     -2.38682306	    -27.86749330	     12.92331469	      4.61684582	     11.40093324	      5.66850193	     -7.36814394	    -15.94679702	     24.38195362	     -5.28949016	     -1.17007750	     -0.29478084	      1.47264153
      1.30000000	    -12.10790634	      1.57620239	     -2.49885072	     -0.63327322	      0.96235842	      0.15603281	     43.12837541	     -2.03309337	     -2.58450330	    -27.26808572	     12.87368381	      4.60261522	     11.03766148	      5.65610222	     -7.34510152	    -16.06807236	     24.70818258	     -5.25918235	     -1.32514434	     -0.28470318	      1.40369784
      1.31000000	    -11.98679229	      1.58459306	     -2.47856079	     -0.62826880	      0.96163480	      0.15638365	     43.28270811	     -2.00429681	     -2.85667144	    -26.76667607	     12.83979126	      4.55261478	     10.66231524	      5.66641052	     -7.29225691	    -16.21883962	     25.05013610	     -5.23284822	     -1.49364758	     -0.29072154	      1.33272308
      1.32000000	    -11.81959719	      1.58229864	     -2.44437315	     -0.62300672	      0.96094055	      0.15671628	     43.37504818	     -1.99690981	     -3.22163623	    -26.33154436	     12.81350595	      4.47174555	     10.20666753	      5.67062587	     -7.24534924	    -16.33759107	     25.37087915	     -5.18908201	     -1.70279545	     -0.27620469	      1.21119030
      1.33000000	    -11.65529484	      1.59727873	     -2.38208261	     -0.61762103	      0.96014180	      0.15704694	     43.47880181	     -2.03113394	     -3.63198561	    -25.98664028	     12.82507859	      4.42946232	      9.77641479	      5.69403236	     -7.15892476	    -16.51703203	     25.72822784	     -5.15616520	     -1.91007339	     -0.28636895	      1.09115552
      1.34000000	    -11.44122089	      1.59622967	     -2.31496363	     -0.61196498	      0.95937058	      0.15738113	     43.51390693	     -2.07248462	     -4.12061747	    -25.70796420	     12.82987203	      4.39018192	      9.25881821	      5.70301008	     -7.07690058	    -16.66285865	     26.05990689	     -5.10100162	     -2.15865374	     -0.26897396	      0.95716168
      1.35000000	    -11.25244205	      1.61066086	     -2.20261893	     -0.60620464	      0.95845080	      0.15772005	     43.56798910	     -2.15021122	     -4.60159091	    -25.49763404	     12.90918333	      4.37585523	      8.80136516	      5.72560065	     -6.94545327	    -16.88929244	     26.44764729	     -5.05906157	     -2.37502498	     -0.27506599	      0.78536056
      1.36000000	    -11.00565119	      1.59169808	     -2.08692686	     -0.60020001	      0.95758546	      0.15809689	     43.53086624	     -2.21101505	     -5.14222406	    -25.33296525	     12.95947064	      4.36180978	      8.25319003	      5.71171384	     -6.80624552	    -17.09239967	     26.79912017	     -4.98062283	     -2.65175682	     -0.23797472	      0.62146614
      1.37000000	    -10.77886855	      1.57903841	     -1.93813868	     -0.59407097	      0.95659623	      0.15849809	     43.49543296	     -2.28497745	     -5.63624360	    -25.22428329	     13.05936603	      4.34633790	      7.75382469	      5.69851272	     -6.63125132	    -17.36846856	     27.18878771	     -4.90002972	     -2.89988177	     -0.20916313	      0.43277448
      1.38000000	    -10.57834792	      1.56036476	     -1.75614981	     -0.58778707	      0.95549733	      0.15893942	     43.45293581	     -2.35642866	     -6.07444889	    -25.15384945	     13.20690013	      4.32437830	      7.29423033	      5.67103790	     -6.42638670	    -17.68898574	     27.60909028	     -4.81899067	     -3.10721672	     -0.17478782	      0.20391553
      1.39000000	    -10.32571417	      1.50985407	     -1.56710274	     -0.58134523	      0.95445159	      0.15944563	     43.32541804	     -2.39504576	     -6.47375031	    -25.13636214	     13.26021902	      4.28012522	      6.78541113	      5.60010355	     -6.21691481	    -18.04623876	     27.99503142	     -4.67300682	     -3.37875056	     -0.10508071	     -0.00274400
      1.40000000	    -10.15483184	      1.46150061	     -1.33744694	     -0.57477947	      0.95320798	      0.15998407	     43.25761985	     -2.43527842	     -6.77569807	    -25.18382460	     13.37643992	      4.21784442	      6.38362832	      5.52303508	     -5.95914563	    -18.45833078	     28.41413529	     -4.56248555	     -3.54107010	     -0.04028224	     -0.23771273
      1.41000000	     -9.96228072	      1.38550473	     -1.08376189	     -0.56808177	      0.95200343	      0.16055939	     43.11702850	     -2.44835357	     -7.01114343	    -25.25844243	     13.37736342	      4.09568913	      5.97833635	      5.40702175	     -5.68359866	    -18.92812377	     28.79962916	     -4.39105052	     -3.73073423	      0.05721432	     -0.46503496
      1.42000000	     -9.79520575	      1.29690653	     -0.81839645	     -0.56124335	      0.95073813	      0.16120409	     42.98774986	     -2.43469203	     -7.14249876	    -25.43099820	     13.29434125	      3.90431224	      5.60527318	      5.26477107	     -5.40965319	    -19.42483928	     29.18032939	     -4.19969446	     -3.88416062	      0.16736278	     -0.69310524
      1.43000000	     -9.62913901	      1.20155308	     -0.56322441	     -0.55425423	      0.94948274	      0.16195705	     42.84130595	     -2.38451079	     -7.16554456	    -25.69500049	     13.05854842	      3.52145238	      5.23714777	      5.09701856	     -5.17567590	    -19.94685013	     29.52275808	     -3.91678158	     -4.03183885	      0.28246581	     -0.90847558
      1.44000000	     -9.52101625	      1.08198306	     -0.27529744	     -0.54714951	      0.94816165	      0.16270343	     42.75308267	     -2.33011429	     -7.18422641	    -26.09102172	     12.69235353	      3.23571855	      4.94229186	      4.90273841	     -4.85446153	    -20.50607526	     29.84130646	     -3.73530859	     -4.10586715	      0.42938500	     -1.09918075
      1.45000000	     -9.39809114	      0.97149939	     -0.01836513	     -0.53987549	      0.94690624	      0.16357910	     42.65904422	     -2.24809380	     -7.12792248	    -26.62538110	     12.14246686	      2.61957640	      4.62896736	      4.69495684	     -4.62295284	    -21.07758737	     30.10565968	     -3.42301890	     -4.19225944	      0.56334604	     -1.27181643
      1.46000000	     -9.30134734	      0.84897327	      0.23063805	     -0.53244453	      0.94568827	      0.16449432	     42.60767165	     -2.15507909	     -7.08605417	    -27.30363850	     11.42541419	      2.02681801	      4.33304683	      4.47175987	     -4.34988191	    -21.64730574	     30.30574036	     -3.15679904	     -4.23936321	      0.71746087	     -1.39768645
      1.47000000	     -9.21030425	      0.71855446	      0.45444078	     -0.52483506	      0.94456924	      0.16548082	     42.57875797	     -2.04459313	     -7.05676085	    -28.11051859	     10.58972734	      1.35834225	      4.03170725	      4.23333422	     -4.07912694	    -22.21447260	     30.42651261	     -2.88058234	     -4.27134620	      0.88449611	     -1.48089449
      1.48000000	     -9.11902693	      0.58667545	      0.63660728	     -0.51703891	      0.94358316	      0.16654662	     42.56800141	     -1.91459141	     -7.02866443	    -29.02662031	      9.70548879	      0.61946046	      3.71162064	      3.98962196	     -3.81613272	    -22.76541760	     30.46246101	     -2.58554568	     -4.29547354	      1.06122376	     -1.50600819
      1.49000000	     -9.02105363	      0.44883304	      0.76929767	     -0.50904318	      0.94276627	      0.16769449	     42.56109019	     -1.75977278	     -7.00541953	    -30.01786944	      8.87592962	     -0.12702570	      3.36957225	      3.73569218	     -3.57630844	    -23.30934424	     30.41419515	     -2.26902172	     -4.31772039	      1.25276219	     -1.47717992
      1.50000000	     -8.91612382	      0.29329580	      0.84748818	     -0.50084476	      0.94215118	      0.16893759	     42.54140969	     -1.56583984	     -6.98523745	    -31.03928705	      8.18375025	     -0.81657474	      3.01152638	      3.45941299	     -3.35899119	    -23.85717428	     30.27499728	     -1.91802297	     -4.33878466	      1.47249713	     -1.39387726
      1.51000000	     -8.80240032	      0.11827938	      0.86861826	     -0.49245010	      0.94175146	      0.17028891	     42.49051221	     -1.32448595	     -6.95627646	    -32.04869058	      7.68661693	     -1.42843572	      2.64470800	      3.15959283	     -3.16359754	    -24.42542597	     30.04945929	     -1.51166855	     -4.36109028	      1.72033517	     -1.25835478
